<svg width="182" height="51" viewBox="0 0 182 51" fill="none" xmlns="http://www.w3.org/2000/svg">
<g clip-path="url(#clip0_1782_818)">
<path d="M150.973 28.5C151.524 28.2522 152.364 27.6397 153.492 26.6624C154.621 25.6851 155.949 24.8041 157.477 24.0195C159.005 23.2349 160.203 22.643 161.07 22.2439C161.937 21.8447 162.88 21.6176 163.899 21.5625C164.807 21.8929 165.351 22.4366 165.53 23.1936C165.709 23.9507 165.64 24.7628 165.323 25.63C165.007 26.4972 163.857 27.9632 161.875 30.0279C165.013 28.1834 167.181 26.9102 168.379 26.2081C169.577 25.5061 170.54 25.0725 171.27 24.9074C171.999 24.7422 172.625 24.9693 173.149 25.5887C173.672 26.2081 173.672 27.1097 173.149 28.2935C172.625 29.4773 172.453 30.3583 172.632 30.9364C172.811 31.5145 174.133 31.4594 176.597 30.7712C179.061 30.083 180.912 29.4498 182.151 28.8717C182.068 29.9453 181.786 30.7093 181.304 31.1635C180.822 31.6177 179.322 32.2509 176.803 33.0631C174.284 33.8752 172.405 34.1092 171.166 33.7651C169.928 33.4209 169.143 32.8841 168.813 32.1546C168.482 31.425 168.441 30.6473 168.689 29.8214C168.936 28.9955 168.214 29.1882 166.521 30.3996C164.828 31.6109 163.348 32.5606 162.082 33.2489C160.815 33.9371 159.865 34.4189 159.232 34.6942C158.379 34.6942 157.711 34.5497 157.229 34.2606C156.748 33.9715 156.479 33.4554 156.424 32.7121C156.369 31.9687 156.734 31.2805 157.518 30.6473C158.303 30.0141 159.06 29.3534 159.79 28.6652C160.519 27.9769 160.967 27.2749 161.132 26.5592C161.297 25.8434 160.877 25.6163 159.872 25.8778C158.867 26.1393 157.491 26.8757 155.743 28.0871C153.995 29.2984 152.838 30.0554 152.274 30.3583C151.71 30.6611 150.932 30.8538 149.941 30.9364C150.079 29.5599 150.423 28.7478 150.973 28.5Z" fill="#724E4E"/>
<path d="M138.75 27.1741C140.429 26.6235 141.551 26.1004 142.116 25.6049C142.68 25.1094 142.921 24.6551 142.838 24.2422C142.756 23.8292 142.288 23.843 141.434 24.2835C140.581 24.724 139.996 25.1713 139.679 25.6256C139.363 26.0798 139.053 26.596 138.75 27.1741ZM135.116 29.8996C135.116 28.468 135.295 27.3668 135.653 26.596C136.011 25.8252 136.596 25.0268 137.408 24.2009C138.22 23.375 139.032 22.6592 139.844 22.0536C140.657 21.4479 141.489 21.035 142.343 20.8147L143.293 20.7734C144.146 20.801 144.889 21.035 145.522 21.4754C146.156 21.9159 146.424 22.6936 146.328 23.8086C146.231 24.9236 145.681 25.8871 144.676 26.6992C143.671 27.5113 142.535 28.0964 141.269 28.4542C140.003 28.8121 139.321 29.1356 139.225 29.4247C139.129 29.7137 139.335 30.0303 139.844 30.3744C140.354 30.7186 141.496 30.9388 143.272 31.0352C145.048 31.1315 146.5 31.0352 147.628 30.7461C148.757 30.457 149.673 30.1473 150.375 29.817C151.077 29.4866 151.627 29.2664 152.026 29.1563C152.426 29.0461 152.749 29.2526 152.997 29.7757C152.281 30.7943 151.496 31.5445 150.643 32.0262C149.79 32.508 148.723 32.9416 147.443 33.327C146.163 33.7124 144.6 33.9464 142.756 34.029H141.641C139.631 33.8363 138.275 33.5679 137.573 33.2238C136.871 32.8797 136.328 32.4736 135.942 32.0056C135.557 31.5376 135.281 30.8356 135.116 29.8996Z" fill="#724E4E"/>
<path d="M111.681 31.4515C112.37 30.8596 113.168 29.9993 114.077 28.8705C110.869 30.3984 108.88 31.1693 108.109 31.183C107.339 31.183 106.877 30.8114 106.726 30.0681C106.919 29.7515 107.614 29.3454 108.811 28.8499C110.009 28.3544 111.248 27.8244 112.528 27.26C113.808 26.6957 115.164 25.9868 116.595 25.1334C118.027 24.2662 119.803 22.9172 121.923 21.0865C124.042 19.2558 125.949 17.4939 127.642 15.8008C129.335 14.1077 130.608 12.8345 131.462 11.981C132.315 11.1276 132.962 10.4118 133.402 9.83371C133.843 9.25558 134.38 8.88393 135.013 8.71875C136.472 9.15923 137.222 9.72359 137.263 10.4118C137.305 11.1001 136.94 11.8847 136.169 12.7656C135.398 13.6466 133.884 15.0712 131.627 17.0396C129.369 19.008 127.119 20.9557 124.875 22.8828C122.631 24.8099 121.097 26.09 120.271 26.7232C119.445 27.3426 118.798 28.0722 118.33 28.9118C121 27.4528 122.817 26.4961 123.781 26.0419C124.744 25.5876 125.66 25.2641 126.527 25.0714C127.394 24.8787 128.13 24.8994 128.736 25.1334C129.342 25.3674 129.686 25.8491 129.768 26.5787C129.851 27.3082 129.645 28.0653 129.149 28.8499C128.654 29.6345 128.268 30.2057 127.993 30.5636C127.718 30.9215 127.649 31.2174 127.786 31.4515C127.924 31.6855 128.516 31.713 129.562 31.534C130.608 31.3551 131.682 31.0247 132.783 30.543C133.884 30.0612 134.779 29.6551 135.467 29.3248C136.155 28.9944 136.665 28.8981 136.995 29.0357C137.325 29.1734 137.573 29.7102 137.738 30.6462C135.178 31.9126 133.437 32.6972 132.515 33C131.592 33.3028 130.643 33.5299 129.665 33.6814C128.702 33.8328 127.979 33.9085 127.497 33.9085C126.795 33.9085 126.079 33.7846 125.35 33.5368C124.634 33.2891 124.207 32.7798 124.07 32.0089C123.932 31.2381 124.318 30.4604 125.226 29.6758C126.135 28.8912 126.589 28.3612 126.589 28.0859C126.589 27.8106 126.224 27.8588 125.494 28.2305C124.765 28.6021 123.898 29.0357 122.893 29.5312C121.888 30.0268 121.014 30.4604 120.271 30.832C119.527 31.2037 118.653 31.6442 117.649 32.1535C116.644 32.6628 115.728 33.0964 114.902 33.4542C114.077 33.8121 113.23 34.0117 112.363 34.053C111.675 34.053 111.213 33.7708 110.979 33.2065C110.759 32.6283 110.993 32.0433 111.681 31.4515Z" fill="#724E4E"/>
<path d="M108.935 16.6417C108.054 16.2839 107.648 15.8778 107.717 15.4235C107.786 14.9693 108.295 14.5013 109.245 14.0195C110.195 13.5378 111.255 12.939 112.425 12.2232C113.595 11.5074 114.723 10.5508 115.811 9.35324C116.898 8.15569 117.607 7.0958 117.937 6.17355C118.268 5.2513 118.405 4.625 118.35 4.29464C118.295 3.96429 118.137 3.75093 117.875 3.65458C117.614 3.55822 117.008 3.69587 116.059 4.06752C115.109 4.43917 113.946 5.20312 112.569 6.35938C111.193 7.51562 109.72 8.9747 108.151 10.7366C106.581 12.4985 105.157 14.2879 103.877 16.1049C102.596 17.9219 101.399 19.7801 100.284 21.6797C99.169 23.5792 98.1504 25.7541 97.2282 28.2042C96.3059 30.6544 95.8104 32.5402 95.7416 33.8616C95.6727 35.183 95.7829 36.4425 96.0719 37.6401C96.361 38.8376 96.7946 39.9526 97.3727 40.9849C97.9508 42.0173 98.8387 43.0084 100.036 43.9581C101.234 44.9079 102.603 45.665 104.145 46.2294C105.687 46.7937 107.153 47.1034 108.543 47.1585C109.933 47.2135 111.344 47.1516 112.776 46.9727C114.207 46.7937 115.776 46.4083 117.483 45.8164C119.19 45.2245 120.456 44.6326 121.282 44.0407C122.108 43.4488 122.48 42.9258 122.397 42.4715C122.315 42.0173 122.328 41.5286 122.439 41.0056C122.549 40.4825 122.796 40.1522 123.182 40.0145C123.567 39.8769 123.96 39.8631 124.359 39.9732C124.758 40.0833 125.288 40.3724 125.949 40.8404C125.894 41.8315 125.715 42.6436 125.412 43.2768C125.109 43.91 124.173 44.7909 122.604 45.9196C121.035 47.0484 119.286 47.9981 117.359 48.769C115.432 49.5398 112.748 50.1179 109.307 50.5033C107.022 50.3932 105.418 50.1868 104.496 49.8839C103.574 49.5811 102.645 49.2439 101.709 48.8722C100.773 48.5006 99.7403 47.9362 98.6115 47.1791C97.4828 46.4221 96.3541 45.2865 95.2254 43.7723C94.0967 42.2582 93.3327 40.9299 92.9335 39.7874C92.5343 38.6449 92.321 37.4542 92.2935 36.2154V34.894C92.2935 33.1321 92.6651 31.205 93.4084 29.1127C94.1517 27.0205 94.9019 25.2035 95.659 23.6618C96.416 22.1202 97.5241 20.0898 98.9832 17.5709C100.442 15.0519 102.073 12.7669 103.877 10.716C105.68 8.66499 107.504 6.7792 109.348 5.05859C111.193 3.33798 112.755 2.10603 114.035 1.36272C115.315 0.61942 116.602 0.165179 117.896 0L119.135 0.123883C119.741 0.344121 120.216 0.633184 120.56 0.991071C120.904 1.34896 121.2 1.85138 121.447 2.49833C121.695 3.14527 121.695 4.14323 121.447 5.49219L120.952 7.02009C119.933 8.89211 118.763 10.4338 117.442 11.6451C116.12 12.8564 113.285 14.5219 108.935 16.6417Z" fill="#724E4E"/>
<path d="M55.211 26.6819C54.1924 27.5353 53.5455 28.2993 53.2702 28.9738C52.9949 29.6482 53.0774 30.1644 53.5179 30.5223C53.9584 30.8802 54.6604 30.9077 55.624 30.6049C56.5875 30.3021 57.5855 29.8823 58.6178 29.3454C59.6502 28.8086 60.5793 28.2442 61.4052 27.6523C62.2311 27.0605 62.7129 26.5099 62.8505 26.0006C62.9882 25.4913 62.94 24.9613 62.706 24.4107C62.472 23.8601 61.9214 23.6261 61.0542 23.7087C60.187 23.7913 59.251 24.0941 58.2462 24.6172C57.2413 25.1403 56.2296 25.8285 55.211 26.6819ZM51.2674 26.1038C52.7127 24.6998 54.0548 23.6605 55.2936 22.986C56.5324 22.3116 57.5029 21.8229 58.2049 21.5201C58.9069 21.2173 59.8773 20.997 61.1161 20.8594C62.7404 20.9144 63.8347 21.1278 64.3991 21.4994C64.9634 21.8711 65.3351 22.2978 65.514 22.7796C65.693 23.2613 65.7618 23.8051 65.7205 24.4107C65.6792 25.0164 65.9407 25.2504 66.5051 25.1127C67.0694 24.9751 67.3654 25.2435 67.3929 25.918C67.4205 26.5924 67.152 27.2945 66.5877 28.024C66.0233 28.7535 65.576 29.2628 65.2456 29.5519C64.9152 29.841 64.8189 30.1644 64.9565 30.5223C65.0942 30.8802 65.4727 31.1417 66.0921 31.3069C66.7116 31.4721 67.4686 31.4377 68.3633 31.2037C69.2718 30.9559 70.0564 30.6118 70.7171 30.1713C71.3779 29.7171 71.9766 29.4762 72.5135 29.4487C73.0503 29.4074 73.4013 29.607 73.5665 30.0474C73.5527 30.8596 73.2499 31.5272 72.658 32.0502C72.0799 32.5595 71.2471 32.9794 70.1597 33.3097C69.086 33.6263 68.2188 33.7984 67.5581 33.8259C66.8974 33.8534 66.4982 33.8672 66.3606 33.8672C64.8189 33.8672 63.6351 33.6332 62.8092 33.1652C61.9007 32.6696 61.2263 32.0227 60.7858 31.2243C59.6571 31.5272 58.6453 31.9263 57.7506 32.4219C56.8559 32.9174 55.9887 33.2891 55.1491 33.5368C54.3094 33.7846 53.3803 33.9085 52.3617 33.9085C51.6597 33.9085 50.9301 33.585 50.1731 32.9381C49.4298 32.2911 49.0581 31.0729 49.0581 29.2835C49.0856 28.5539 49.8221 27.494 51.2674 26.1038Z" fill="#724E4E"/>
<path d="M25.1074 28.4542C25.2038 28.0275 25.775 27.3599 26.8211 26.4515C27.881 25.543 28.7414 24.4968 29.4021 23.3131C30.0628 22.1293 30.6822 21.4066 31.2603 21.1451C31.8384 20.8698 32.3615 20.8767 32.8295 21.1657C33.2975 21.4548 33.6554 22.0673 33.9032 23.0033C34.1509 23.9394 33.9101 24.8065 33.1805 25.6049C32.451 26.4033 31.687 27.002 30.8887 27.4012C30.0903 27.7866 29.5604 28.3028 29.2988 28.9498C29.0373 29.583 29.0992 30.0991 29.4847 30.4983C29.8701 30.8975 30.4413 31.0145 31.1984 30.8493C31.9554 30.6842 32.7125 30.3951 33.4696 29.9821C34.2267 29.5692 34.9837 29.0805 35.7408 28.5162C36.4979 27.9518 37.3169 27.3186 38.1978 26.6166C39.0788 25.9146 39.5743 25.1782 39.6844 24.4074C39.7945 23.6365 39.9804 22.9208 40.2419 22.26C40.5034 21.5993 40.8476 21.1382 41.2743 20.8767C41.701 20.6151 42.2585 20.4844 42.9467 20.4844C43.7175 20.8147 44.392 21.1726 44.9701 21.558C45.5483 21.9435 45.7134 22.5766 45.4657 23.4576C45.2179 24.3385 44.8118 25.0681 44.2475 25.6462C43.6831 26.2243 43.2908 26.7267 43.0706 27.1535C42.8504 27.5802 42.754 27.9381 42.7815 28.2271C42.8091 28.5162 43.1325 28.9222 43.752 29.4453C44.3851 29.9546 45.211 30.1473 46.2296 30.0234C47.262 29.8858 48.0466 29.6311 48.5834 29.2595C49.1203 28.8741 49.602 28.6401 50.0287 28.5575C50.4554 28.4749 50.7376 28.6263 50.8753 29.0117C51.0129 29.3971 51.1368 29.8514 51.2469 30.3744C50.2559 31.0352 49.2992 31.5858 48.377 32.0262C47.4547 32.4529 46.4636 32.6801 45.4037 32.7076C44.3438 32.7351 43.3597 32.4942 42.4512 31.9849C41.5427 31.4756 40.9577 30.987 40.6961 30.519C40.4346 30.051 40.1731 29.7757 39.9115 29.6931C39.65 29.6105 39.2646 29.7481 38.7553 30.106C38.246 30.4639 37.5371 30.9939 36.6286 31.6959C35.7201 32.3979 34.0959 33.1894 31.7559 34.0703H29.8563C28.4798 33.7675 27.4819 33.4302 26.8624 33.0586C26.243 32.6869 25.7681 32.157 25.4378 31.4688C25.1212 30.7805 24.9629 30.1955 24.9629 29.7137C24.9629 29.3008 25.0111 28.881 25.1074 28.4542Z" fill="#724E4E"/>
<path d="M27.6468 9.72712C27.1099 10.2915 26.4905 10.615 25.7885 10.6975C25.0865 10.7801 24.6391 10.5805 24.4464 10.0988C24.2537 9.617 24.2055 9.25223 24.3019 9.00446C24.3982 8.7567 24.6804 8.35063 25.1484 7.78627C25.6164 7.22191 25.582 6.60249 25.0452 5.92801C24.5084 5.25353 23.7651 4.74423 22.8153 4.40011C21.8655 4.05599 20.9364 3.94587 20.0279 4.06975C19.1194 4.19364 18.4105 4.50335 17.9012 4.99888C17.3919 5.49442 17.096 6.15513 17.0134 6.98103C16.9308 7.80692 17.1029 8.69475 17.5296 9.64453C17.9563 10.5943 18.4862 11.3996 19.1194 12.0603C19.7526 12.721 20.372 13.361 20.9777 13.9805C21.5833 14.5999 21.9068 15.1642 21.9481 15.6735C21.9894 16.1828 21.7898 16.7059 21.3493 17.2427C20.9089 17.7796 20.1587 18.2269 19.0988 18.5848C18.0389 18.9427 16.7794 19.631 15.3203 20.6496C13.8612 21.6682 12.3953 22.5353 10.9224 23.2511C9.44959 23.9669 8.25205 24.6758 7.3298 25.3778C6.40755 26.0798 5.75372 26.9057 5.3683 27.8555C4.98289 28.8052 5.14807 29.6449 5.86384 30.3744C6.57961 31.104 7.58445 31.5857 8.87835 31.8198C10.1722 32.0538 11.4455 32.1432 12.6981 32.0882C13.9507 32.0331 15.1483 31.861 16.2907 31.572C17.4332 31.2829 18.6376 30.9044 19.904 30.4364C21.1704 29.9684 23.3177 29.3214 26.346 28.4955C26.4286 29.872 25.8436 30.8356 24.591 31.3862C23.3384 31.9368 22.072 32.5218 20.7919 33.1412C19.5117 33.7606 18.0595 34.325 16.4353 34.8343C14.811 35.3436 12.8564 35.667 10.5714 35.8047C8.78199 35.7221 7.34356 35.5982 6.25614 35.433C5.16871 35.2679 4.12258 34.8824 3.11775 34.2768C2.11291 33.6711 1.36961 32.9278 0.887835 32.0469C0.406064 31.1659 0.110119 30.1748 0 29.0737C0.0550595 28.0826 0.351005 27.0709 0.887835 26.0385C1.42467 25.0061 2.29185 23.9669 3.4894 22.9208C4.68694 21.8746 6.18731 21.0143 7.99051 20.3398C9.79371 19.6654 11.3629 18.9565 12.6981 18.2132C14.0333 17.4699 15.0519 16.7747 15.7539 16.1278C16.4559 15.4808 16.6899 14.7857 16.4559 14.0424C16.2219 13.2991 15.6231 12.5765 14.6596 11.8744C13.6961 11.1724 13.0904 10.2777 12.8426 9.19029C12.5949 8.10286 12.5467 7.15309 12.6981 6.34096C12.8495 5.52883 13.0353 4.83371 13.2556 4.25558C13.4758 3.67746 13.9025 3.14751 14.5357 2.66574C15.1689 2.18397 15.926 1.78478 16.8069 1.46819C17.6879 1.1516 19.0093 0.938244 20.7712 0.828125L23.1663 0.993303C25.4237 1.59896 26.9241 2.36979 27.6674 3.3058C28.4107 4.24182 28.8512 5.42559 28.9888 6.85714C28.631 8.2061 28.1836 9.16276 27.6468 9.72712Z" fill="#724E4E"/>
</g>
<defs>
<clipPath id="clip0_1782_818">
<rect width="182" height="51" fill="white"/>
</clipPath>
</defs>
</svg>
