<svg xmlns="http://www.w3.org/2000/svg" width="973" height="411" fill="none" xmlns:v="https://vecta.io/nano"><g clip-path="url(#A)" fill="#fff"><path d="M546.873 63.002V31.5h31.502v31.502h-31.502zm-31.502 0h31.502v94.506h-31.502V63.002zm-89.465 31.502h31.502v31.502h31.502v31.502h-63.004v-31.502h-31.502V63.002h31.502v31.502zm0-63.004h63.004v63.004h-31.502V63.002h-31.502V31.5zM273.437 189.01V31.5h63.003v31.502h-31.502v63.004h31.502v31.502h-31.502v31.502h-31.501zM336.44 63.002h31.502v63.004H336.44V63.002zM246.976 31.5v126.008h-63.004v-31.502h31.502V31.5h31.502zm-94.506 0h31.502v94.506H152.47V31.5zM94.506 0v31.502H31.502V0h63.004zM0 126.008h94.506v31.502H0v-31.502zm0-94.506h31.502v31.502H0V31.502zm31.502 31.502h63.004v31.502H31.502V63.004zm63.004 31.502h31.502v31.502H94.506V94.506zm846.771 284.808v-31.502h31.502v31.502h-31.502zm-57.963-157.509v31.502h-63.003v-31.502h63.003zm-94.505 126.007h94.505v31.502h-94.505v-31.502zm0-94.505h31.502v31.502h-31.502v-31.502zm31.502 31.502h63.003v31.501h-63.003v-31.501zm63.003 31.501h31.502v31.502h-31.502V316.31zm-152.469-94.505v31.502h-63.004v-31.502h63.004zm-94.506 126.007h94.506v31.502h-94.506v-31.502zm0-94.505h31.502v31.502h-31.502v-31.502zm31.502 31.502h63.004v31.501h-63.004v-31.501zm63.004 31.501h31.502v31.502h-31.502V316.31zm-215.473 31.502H483.87v-94.505h31.502v94.505zm0 0h63.004v31.502h-63.004v-31.502zm0-126.007h63.004v31.502h-63.004v-31.502zm63.004 94.505h31.502v31.502h-31.502V316.31zm0-63.003h31.502v31.502h-31.502v-31.502zM362.902 379.312h63.004v31.502h-63.004v-31.502zm0-126.007h31.502v63.004h-31.502v-63.004zm31.502 63.004h31.502v-63.004h31.502v126.007h-31.502V347.81h-31.502v-31.501zm-152.469 63.003V347.81h31.501v-31.501h-31.501v-31.502h31.501v-31.502h63.004v31.502h-31.502v31.502h31.502v31.501h-31.502v31.502h-63.003zM120.968 347.81v-63.003h31.502v63.003h-31.502zm31.502 0h31.502v-63.003H152.47v-31.502h63.004v126.007H152.47V347.81zm-57.964-94.503H31.502v31.502h63.004v31.501H31.502v31.502h63.004v31.502H0V221.805h94.506v31.502zm774.432-107.346v-10.609h10.61v-21.219h-10.61V82.305h31.829v21.219h10.609V82.305h31.829v31.828h-10.61v21.219h10.61v10.609h-31.829v10.61h-10.609v-10.61h-31.829zm21.219-42.437v-10.61h-10.609v10.61h10.609zm10.61 21.219v-10.61h-10.61v10.61h10.61zm21.219 0v-10.61h-10.61v10.61h10.61zm10.609-21.219v-10.61h-10.609v10.61h10.609zm-148.533 53.047v-53.047h10.61v10.609h10.609v-10.609h-10.609V82.305h10.609v10.609h10.61v10.61H826.5v10.609h-10.609v21.219H826.5v-21.219h10.61v-10.609H826.5V82.305h10.61v10.609h21.219v10.61h-10.61v10.609h10.61v42.438h-10.61v-21.219H837.11v21.219h-31.829v-21.219h-10.609v21.219h-10.61zm-74.265 0h-10.609v-10.61h10.609v10.61zm0-63.657h31.828V82.305h10.61v10.609h21.219v10.61h-10.61v10.609h10.61v10.61h-10.61v10.609h-10.609v-10.609h-10.61v10.609h-10.609v-10.609h-10.61v21.218h-10.609V92.914zm10.609 53.047h21.219v10.61h-21.219v-10.61zm10.61-31.828v-10.609h-10.61v10.609h10.61zm10.609 21.219h10.61v10.609h-10.61v-10.609zm10.61-21.219v-10.609h-10.61v10.609h10.61zm0 31.828h21.219v10.61h-21.219v-10.61zm-137.923-10.609v-21.219h10.609v-10.609h-10.609v-10.61h10.609V82.305h10.609v10.609h10.61v10.61h-10.61v10.609h21.219v21.219H646.14v-10.609h-10.61v31.828h-10.609v-21.219h-10.609zm31.828 10.609h21.219v-31.828h-10.61V92.914H646.14V82.305h42.438v10.609h-21.219v10.61h10.609v10.609h10.61v21.219h-10.61v10.609h10.61v10.61H646.14v-10.61z"/></g><defs><clipPath id="A"><path fill="#fff" d="M0 0h973v411H0z"/></clipPath></defs></svg>