<svg width="24" height="24" viewBox="0 0 24 24" fill="none" xmlns="http://www.w3.org/2000/svg">
<path d="M10.6552 24C9.27586 24 8.2069 23.6962 7.44828 23.0886C5.7931 21.6709 3.89655 17.5527 1.75862 10.7342C0.655173 7.22363 0.0689654 4.92827 0 3.8481V3.34177C0 2.39662 0.241379 1.65401 0.724138 1.11392C1.48276 0.371307 2.17241 0 2.7931 0C4.58621 0 6.34483 2.12658 8.06897 6.37975L9.31035 9.62025C10.069 11.9156 10.6897 13.0633 11.1724 13.0633C11.6552 13.0633 12.7931 11.5781 14.5862 8.60759C16.7931 5.02954 18.4483 2.80169 19.5517 1.92405C20.1035 1.51898 20.6552 1.31645 21.2069 1.31645C21.8276 1.31645 22.4483 1.51898 23.069 1.92405C23.6897 2.39662 24 3.24051 24 4.4557C24 6.27848 23.6207 8.03375 22.8621 9.72152C22.1034 11.4093 20.5862 13.9747 18.3103 17.4177C16.3103 20.4557 14.8621 22.4135 13.9655 23.2911C13.6207 23.6287 13.2069 23.8312 12.7241 23.8987C12.2414 23.9662 11.5517 24 10.6552 24Z" fill="white"/>
</svg>
